<?xml version="1.0" encoding="iso-8859-1"?>
<!-- Generator: Adobe Illustrator 18.0.0, SVG Export Plug-In . SVG Version: 6.00 Build 0)  -->
<!DOCTYPE svg PUBLIC "-//W3C//DTD SVG 1.1//EN" "http://www.w3.org/Graphics/SVG/1.1/DTD/svg11.dtd">
<svg version="1.1" id="Capa_1" xmlns="http://www.w3.org/2000/svg" xmlns:xlink="http://www.w3.org/1999/xlink" x="0px" y="0px"
	 viewBox="0 0 171.469 171.469" style="enable-background:new 0 0 171.469 171.469;" xml:space="preserve">
<g>
	<path d="M171.105,23.036c-0.961-5.223-3.814-10.424-8.035-14.645C157.737,3.059,151.011,0,144.613,0
		c-4.313,0-8.232,1.475-11.132,4.139c-0.106,0.087-0.207,0.182-0.308,0.277c-0.05,0.048-0.105,0.09-0.154,0.139
		c-0.02,0.02-0.037,0.041-0.057,0.06c-0.015,0.015-0.03,0.027-0.045,0.043l-62.306,65.13L4.664,132.911
		c-0.035,0.033-0.068,0.066-0.103,0.1c-3.774,3.775-5.305,9.391-4.198,15.407c0.961,5.223,3.814,10.424,8.035,14.645
		c5.524,5.525,12.299,8.407,18.448,8.406c4.425,0,8.527-1.494,11.604-4.569c0.034-0.034,0.067-0.068,0.1-0.102l60.312-63.01
		c1.243,1.822,5.011,8.274-0.027,13.313c-1.563,1.562-1.563,4.095,0,5.657c0.781,0.781,1.805,1.171,2.828,1.171
		s2.048-0.391,2.828-1.172c4.723-4.722,5.451-10.202,4.548-14.958c1.122,0.213,2.282,0.34,3.466,0.34
		c3.832,0,7.883-1.279,11.49-4.887c1.563-1.563,1.563-4.095,0-5.657c-1.561-1.562-4.096-1.562-5.656,0
		c-5,4.999-11.355,1.357-13.299,0.035l61.765-59.087c0.018-0.017,0.033-0.036,0.05-0.053c0.017-0.017,0.036-0.031,0.053-0.048
		C170.682,34.668,172.212,29.052,171.105,23.036z M153.878,17.584c2.341,2.341,3.96,5.185,4.441,7.803
		c0.316,1.715,0.092,3.153-0.596,3.852l-0.019,0.018c-0.619,0.61-1.642,0.74-2.393,0.74c-2.264,0-5.886-1.204-9.265-4.583
		c-2.342-2.341-3.961-5.186-4.442-7.804c-0.314-1.711-0.092-3.144,0.592-3.846l0.021-0.023c0.619-0.612,1.644-0.742,2.396-0.742
		C146.876,13,150.498,14.204,153.878,17.584z M80.633,90.828c-2.913-2.913-4.199-6.382-3.998-8.811l1.792-1.715
		c1.089,2.74,2.823,5.374,5.091,7.641c2.339,2.339,4.968,4.033,7.635,5.097l-1.709,1.785C87.016,95.027,83.547,93.741,80.633,90.828
		z M98.105,86.272c-2.434,0.255-5.969-1.026-8.931-3.987c-2.052-2.051-3.476-4.571-3.905-6.912
		c-0.095-0.517-0.178-1.246-0.104-1.993l45.517-47.58c1.441,3.161,3.541,6.175,6.173,8.807c2.658,2.657,5.662,4.749,8.798,6.18
		L98.105,86.272z M29.227,157.737c-1.597,1.517-7.005,0.762-11.636-3.868c-2.341-2.341-3.96-5.185-4.441-7.803
		c-0.313-1.697-0.098-3.124,0.574-3.832L69.77,88.588c1.054,2.757,2.791,5.481,5.207,7.896c2.417,2.417,5.143,4.147,7.901,5.202
		L29.227,157.737z"/>
</g>
<g>
</g>
<g>
</g>
<g>
</g>
<g>
</g>
<g>
</g>
<g>
</g>
<g>
</g>
<g>
</g>
<g>
</g>
<g>
</g>
<g>
</g>
<g>
</g>
<g>
</g>
<g>
</g>
<g>
</g>
</svg>
